<svg xmlns="http://www.w3.org/2000/svg" width="600" height="600" viewBox="0 0 600 600"><rect x="0" y="0" width="600" height="600" fill="#0a0e27"/><circle cx="300" cy="280" r="220" fill="none" stroke="#00d4ff" stroke-width="3" opacity="0.15"/><circle cx="300" cy="280" r="205" fill="none" stroke="#00d4ff" stroke-width="1.5" opacity="0.25"/><circle cx="300" cy="280" r="190" fill="none" stroke="#00d4ff" stroke-width="1" opacity="0.35"/><circle cx="300" cy="280" r="175" fill="none" stroke="#00d4ff" stroke-width="0.5" opacity="0.45"/><polygon points="300,150 360,190 360,270 300,230" fill="#00d4ff"/><polygon points="300,150 240,190 240,270 300,230" fill="#0088cc"/><polygon points="300,230 360,270 300,410 240,270" fill="#00aaff"/><circle cx="300" cy="260" r="35" fill="#66e0ff"/><circle cx="300" cy="260" r="20" fill="#aaeeff"/><text x='300' y='270' text-anchor='middle' font-size='28' font-weight='bold' font-family='Arial' fill='#0a0e27'>T</text><circle cx="300" cy="120" r="4" fill="#00d4ff"/><circle cx="200" cy="180" r="3" fill="#0088cc"/><circle cx="400" cy="180" r="3" fill="#0088cc"/><circle cx="160" cy="290" r="4" fill="#00aaff"/><circle cx="440" cy="290" r="4" fill="#00aaff"/><circle cx="300" cy="450" r="5" fill="#00d4ff"/><line x1="300" y1="124" x2="300" y2="148" stroke="#00d4ff" stroke-width="2"/><line x1="197" y1="183" x2="238" y2="192" stroke="#0088cc" stroke-width="2"/><line x1="403" y1="183" x2="362" y2="192" stroke="#0088cc" stroke-width="2"/><line x1="158" y1="293" x2="238" y2="272" stroke="#00aaff" stroke-width="2"/><line x1="442" y1="293" x2="362" y2="272" stroke="#00aaff" stroke-width="2"/><line x1='442' y1='293' x2='362' y2='272' stroke='#00aaff' stroke-width='1' opacity='0.5'/><text x='300' y='510' text-anchor='middle' font-size='42' font-weight='800' font-family='Segoe UI, Arial' fill='#00d4ff' letter-spacing='4'>TECHSCRIPT</text><text x='300' y='545' text-anchor='middle' font-size='16' font-weight='400' font-family='Segoe UI, Arial' fill='#6688aa' letter-spacing='8'>2.0</text><text x='300' y='575' text-anchor='middle' font-size='12' font-weight='300' font-family='Segoe UI, Arial' fill='#445566'>MODERN PROGRAMMING LANGUAGE</text></svg>